<svg width="302" height="82" viewBox="0 0 302 82" fill="none" xmlns="http://www.w3.org/2000/svg">
<mask id="path-1-outside-1_143_162" maskUnits="userSpaceOnUse" x="3" y="8.70239" width="172" height="76" fill="black">
<rect fill="white" x="3" y="8.70239" width="172" height="76"/>
<path d="M50.08 10.7024H62.72C63.3067 10.7024 63.8133 10.9157 64.24 11.3424C64.6667 11.7691 64.88 12.2757 64.88 12.8624V64.5424C64.88 65.1291 64.6667 65.6357 64.24 66.0624C63.8133 66.4891 63.3067 66.7024 62.72 66.7024H48.24C47.6533 66.7024 47.1467 66.4891 46.72 66.0624C46.2933 65.6357 46.08 65.1291 46.08 64.5424V42.6224L40.8 51.2624C39.9467 52.5957 38.96 53.2624 37.84 53.2624H32.24C31.12 53.2624 30.1333 52.5957 29.28 51.2624L24 42.6224V64.5424C24 65.1291 23.7867 65.6357 23.36 66.0624C22.9333 66.4891 22.4267 66.7024 21.84 66.7024H7.36C6.77333 66.7024 6.26667 66.4891 5.84 66.0624C5.41333 65.6357 5.2 65.1291 5.2 64.5424V12.8624C5.2 12.2757 5.41333 11.7691 5.84 11.3424C6.26667 10.9157 6.77333 10.7024 7.36 10.7024H20C21.4933 10.7024 22.64 11.4224 23.44 12.8624L35.04 32.0624L46.64 12.8624C47.44 11.4224 48.5867 10.7024 50.08 10.7024ZM73.2781 25.1024H86.7981C88.0248 25.1024 88.8781 25.7424 89.3581 27.0224L95.9181 45.2624L102.718 27.0224C103.251 25.7424 104.158 25.1024 105.438 25.1024H118.798C119.278 25.1024 119.705 25.2891 120.078 25.6624C120.451 25.9824 120.638 26.3291 120.638 26.7024C120.638 27.0757 120.611 27.3691 120.558 27.5824L97.9981 79.9824C97.4648 81.2624 96.5315 81.9024 95.1981 81.9024H82.0781C81.5981 81.9024 81.1715 81.7424 80.7981 81.4224C80.4781 81.1024 80.3181 80.7024 80.3181 80.2224C80.3181 79.7957 80.3448 79.5291 80.3981 79.4224L86.7981 64.0624L71.3581 27.5824C71.3048 27.4224 71.2781 27.2357 71.2781 27.0224C71.4915 25.7424 72.1581 25.1024 73.2781 25.1024ZM172.526 42.4624V64.5424C172.526 65.1291 172.313 65.6357 171.886 66.0624C171.46 66.4891 170.953 66.7024 170.366 66.7024H155.086C154.5 66.7024 153.993 66.4891 153.566 66.0624C153.14 65.6357 152.926 65.1291 152.926 64.5424V43.0224C152.926 40.0891 151.593 38.6224 148.926 38.6224C146.26 38.6224 144.926 40.0891 144.926 43.0224V64.5424C144.926 65.1291 144.713 65.6357 144.286 66.0624C143.86 66.4891 143.353 66.7024 142.766 66.7024H127.566C126.98 66.7024 126.473 66.4891 126.046 66.0624C125.62 65.6357 125.406 65.1291 125.406 64.5424V27.2624C125.406 26.6757 125.62 26.1691 126.046 25.7424C126.473 25.3157 126.98 25.1024 127.566 25.1024H141.566C142.153 25.1024 142.66 25.3157 143.086 25.7424C143.513 26.1691 143.726 26.6757 143.726 27.2624V29.9024C145.113 28.2491 146.98 26.9157 149.326 25.9024C151.726 24.8357 154.286 24.3024 157.006 24.3024C161.38 24.3024 165.06 25.8491 168.046 28.9424C171.033 31.9824 172.526 36.4891 172.526 42.4624Z"/>
</mask>
<path d="M50.08 10.7024H62.72C63.3067 10.7024 63.8133 10.9157 64.24 11.3424C64.6667 11.7691 64.88 12.2757 64.88 12.8624V64.5424C64.88 65.1291 64.6667 65.6357 64.24 66.0624C63.8133 66.4891 63.3067 66.7024 62.72 66.7024H48.24C47.6533 66.7024 47.1467 66.4891 46.72 66.0624C46.2933 65.6357 46.08 65.1291 46.08 64.5424V42.6224L40.8 51.2624C39.9467 52.5957 38.96 53.2624 37.84 53.2624H32.24C31.12 53.2624 30.1333 52.5957 29.28 51.2624L24 42.6224V64.5424C24 65.1291 23.7867 65.6357 23.36 66.0624C22.9333 66.4891 22.4267 66.7024 21.84 66.7024H7.36C6.77333 66.7024 6.26667 66.4891 5.84 66.0624C5.41333 65.6357 5.2 65.1291 5.2 64.5424V12.8624C5.2 12.2757 5.41333 11.7691 5.84 11.3424C6.26667 10.9157 6.77333 10.7024 7.36 10.7024H20C21.4933 10.7024 22.64 11.4224 23.44 12.8624L35.04 32.0624L46.64 12.8624C47.44 11.4224 48.5867 10.7024 50.08 10.7024ZM73.2781 25.1024H86.7981C88.0248 25.1024 88.8781 25.7424 89.3581 27.0224L95.9181 45.2624L102.718 27.0224C103.251 25.7424 104.158 25.1024 105.438 25.1024H118.798C119.278 25.1024 119.705 25.2891 120.078 25.6624C120.451 25.9824 120.638 26.3291 120.638 26.7024C120.638 27.0757 120.611 27.3691 120.558 27.5824L97.9981 79.9824C97.4648 81.2624 96.5315 81.9024 95.1981 81.9024H82.0781C81.5981 81.9024 81.1715 81.7424 80.7981 81.4224C80.4781 81.1024 80.3181 80.7024 80.3181 80.2224C80.3181 79.7957 80.3448 79.5291 80.3981 79.4224L86.7981 64.0624L71.3581 27.5824C71.3048 27.4224 71.2781 27.2357 71.2781 27.0224C71.4915 25.7424 72.1581 25.1024 73.2781 25.1024ZM172.526 42.4624V64.5424C172.526 65.1291 172.313 65.6357 171.886 66.0624C171.46 66.4891 170.953 66.7024 170.366 66.7024H155.086C154.5 66.7024 153.993 66.4891 153.566 66.0624C153.14 65.6357 152.926 65.1291 152.926 64.5424V43.0224C152.926 40.0891 151.593 38.6224 148.926 38.6224C146.26 38.6224 144.926 40.0891 144.926 43.0224V64.5424C144.926 65.1291 144.713 65.6357 144.286 66.0624C143.86 66.4891 143.353 66.7024 142.766 66.7024H127.566C126.98 66.7024 126.473 66.4891 126.046 66.0624C125.62 65.6357 125.406 65.1291 125.406 64.5424V27.2624C125.406 26.6757 125.62 26.1691 126.046 25.7424C126.473 25.3157 126.98 25.1024 127.566 25.1024H141.566C142.153 25.1024 142.66 25.3157 143.086 25.7424C143.513 26.1691 143.726 26.6757 143.726 27.2624V29.9024C145.113 28.2491 146.98 26.9157 149.326 25.9024C151.726 24.8357 154.286 24.3024 157.006 24.3024C161.38 24.3024 165.06 25.8491 168.046 28.9424C171.033 31.9824 172.526 36.4891 172.526 42.4624Z" fill="#328ABD"/>
<path d="M46.72 66.0624L48.1342 64.6482L48.1342 64.6482L46.72 66.0624ZM46.08 42.6224H48.08V35.5142L44.3734 41.5795L46.08 42.6224ZM40.8 51.2624L42.4845 52.3405L42.4957 52.323L42.5066 52.3053L40.8 51.2624ZM29.28 51.2624L27.5734 52.3053L27.5843 52.323L27.5955 52.3405L29.28 51.2624ZM24 42.6224L25.7066 41.5795L22 35.5142V42.6224H24ZM23.36 66.0624L24.7742 67.4766H24.7742L23.36 66.0624ZM5.84 66.0624L7.25421 64.6482H7.25421L5.84 66.0624ZM5.84 11.3424L7.25422 12.7566L7.25422 12.7566L5.84 11.3424ZM23.44 12.8624L21.6917 13.8337L21.7094 13.8655L21.7282 13.8966L23.44 12.8624ZM35.04 32.0624L33.3282 33.0966L35.04 35.93L36.7518 33.0966L35.04 32.0624ZM46.64 12.8624L48.3518 13.8966L48.3706 13.8655L48.3883 13.8337L46.64 12.8624ZM50.08 12.7024H62.72V8.70239H50.08V12.7024ZM62.72 12.7024C62.7449 12.7024 62.758 12.7046 62.762 12.7054C62.7656 12.7061 62.7655 12.7063 62.7639 12.7057C62.7624 12.705 62.7655 12.706 62.7739 12.7118C62.7827 12.7179 62.8004 12.7312 62.8258 12.7566L65.6542 9.92818C64.8644 9.13841 63.8538 8.70239 62.72 8.70239V12.7024ZM62.8258 12.7566C62.8512 12.782 62.8645 12.7996 62.8705 12.8084C62.8764 12.8169 62.8774 12.82 62.8767 12.8185C62.8761 12.8169 62.8763 12.8168 62.877 12.8204C62.8778 12.8244 62.88 12.8375 62.88 12.8624H66.88C66.88 11.7286 66.444 10.7179 65.6542 9.92818L62.8258 12.7566ZM62.88 12.8624V64.5424H66.88V12.8624H62.88ZM62.88 64.5424C62.88 64.5673 62.8778 64.5804 62.877 64.5844C62.8763 64.588 62.8761 64.5878 62.8767 64.5863C62.8774 64.5848 62.8764 64.5879 62.8705 64.5963C62.8645 64.6051 62.8512 64.6228 62.8258 64.6482L65.6542 67.4766C66.444 66.6868 66.88 65.6762 66.88 64.5424H62.88ZM62.8258 64.6482C62.8004 64.6736 62.7827 64.6869 62.7739 64.6929C62.7655 64.6987 62.7624 64.6997 62.7639 64.6991C62.7655 64.6985 62.7656 64.6987 62.762 64.6994C62.758 64.7002 62.7449 64.7024 62.72 64.7024V68.7024C63.8538 68.7024 64.8644 68.2664 65.6542 67.4766L62.8258 64.6482ZM62.72 64.7024H48.24V68.7024H62.72V64.7024ZM48.24 64.7024C48.2151 64.7024 48.202 64.7002 48.198 64.6994C48.1944 64.6987 48.1945 64.6985 48.1961 64.6991C48.1976 64.6997 48.1945 64.6987 48.1861 64.6929C48.1773 64.6869 48.1596 64.6736 48.1342 64.6482L45.3058 67.4766C46.0956 68.2664 47.1062 68.7024 48.24 68.7024V64.7024ZM48.1342 64.6482C48.1088 64.6228 48.0955 64.6051 48.0895 64.5963C48.0837 64.5879 48.0826 64.5848 48.0833 64.5863C48.0839 64.5878 48.0837 64.588 48.083 64.5844C48.0822 64.5804 48.08 64.5673 48.08 64.5424H44.08C44.08 65.6762 44.516 66.6868 45.3058 67.4766L48.1342 64.6482ZM48.08 64.5424V42.6224H44.08V64.5424H48.08ZM44.3734 41.5795L39.0934 50.2195L42.5066 52.3053L47.7866 43.6653L44.3734 41.5795ZM39.1155 50.1843C38.4637 51.2026 38.0186 51.2624 37.84 51.2624V55.2624C39.9014 55.2624 41.4296 53.9888 42.4845 52.3405L39.1155 50.1843ZM37.84 51.2624H32.24V55.2624H37.84V51.2624ZM32.24 51.2624C32.0615 51.2624 31.6163 51.2026 30.9645 50.1843L27.5955 52.3405C28.6504 53.9888 30.1786 55.2624 32.24 55.2624V51.2624ZM30.9866 50.2195L25.7066 41.5795L22.2934 43.6653L27.5734 52.3053L30.9866 50.2195ZM22 42.6224V64.5424H26V42.6224H22ZM22 64.5424C22 64.5673 21.9978 64.5804 21.997 64.5844C21.9963 64.588 21.9961 64.5878 21.9967 64.5863C21.9974 64.5848 21.9964 64.5879 21.9905 64.5963C21.9845 64.6051 21.9712 64.6228 21.9458 64.6482L24.7742 67.4766C25.564 66.6868 26 65.6762 26 64.5424H22ZM21.9458 64.6482C21.9204 64.6736 21.9027 64.6869 21.8939 64.6929C21.8855 64.6987 21.8824 64.6997 21.8839 64.6991C21.8855 64.6985 21.8856 64.6987 21.882 64.6994C21.878 64.7002 21.8649 64.7024 21.84 64.7024V68.7024C22.9738 68.7024 23.9844 68.2664 24.7742 67.4766L21.9458 64.6482ZM21.84 64.7024H7.36V68.7024H21.84V64.7024ZM7.36 64.7024C7.33509 64.7024 7.32199 64.7002 7.31802 64.6994C7.31437 64.6987 7.31455 64.6985 7.31611 64.6991C7.3176 64.6997 7.31453 64.6987 7.30606 64.6929C7.29726 64.6869 7.27964 64.6736 7.25421 64.6482L4.42579 67.4766C5.21556 68.2664 6.22621 68.7024 7.36 68.7024V64.7024ZM7.25421 64.6482C7.22879 64.6228 7.21549 64.6051 7.20946 64.5963C7.20365 64.5879 7.20264 64.5848 7.20327 64.5863C7.20393 64.5878 7.20369 64.588 7.20298 64.5844C7.20221 64.5804 7.2 64.5673 7.2 64.5424H3.2C3.2 65.6762 3.63602 66.6868 4.42579 67.4766L7.25421 64.6482ZM7.2 64.5424V12.8624H3.2V64.5424H7.2ZM7.2 12.8624C7.2 12.8375 7.20221 12.8244 7.20298 12.8204C7.20369 12.8168 7.20393 12.8169 7.20327 12.8185C7.20264 12.82 7.20365 12.8169 7.20946 12.8084C7.21549 12.7996 7.22879 12.782 7.25422 12.7566L4.42579 9.92818C3.63602 10.7179 3.2 11.7286 3.2 12.8624H7.2ZM7.25422 12.7566C7.27964 12.7312 7.29726 12.7179 7.30606 12.7118C7.31453 12.706 7.3176 12.705 7.31612 12.7057C7.31455 12.7063 7.31437 12.7061 7.31802 12.7054C7.32199 12.7046 7.33509 12.7024 7.36 12.7024V8.70239C6.22621 8.70239 5.21556 9.13841 4.42579 9.92818L7.25422 12.7566ZM7.36 12.7024H20V8.70239H7.36V12.7024ZM20 12.7024C20.68 12.7024 21.2 12.9487 21.6917 13.8337L25.1883 11.8911C24.08 9.89607 22.3067 8.70239 20 8.70239V12.7024ZM21.7282 13.8966L33.3282 33.0966L36.7518 31.0282L25.1518 11.8282L21.7282 13.8966ZM36.7518 33.0966L48.3518 13.8966L44.9282 11.8282L33.3282 31.0282L36.7518 33.0966ZM48.3883 13.8337C48.88 12.9487 49.4 12.7024 50.08 12.7024V8.70239C47.7733 8.70239 46 9.89607 44.8917 11.8911L48.3883 13.8337ZM89.3581 27.0224L91.2401 26.3455L91.2355 26.3328L91.2308 26.3201L89.3581 27.0224ZM95.9181 45.2624L94.0361 45.9392L95.8844 51.0783L97.7921 45.961L95.9181 45.2624ZM102.718 27.0224L100.872 26.2532L100.857 26.2882L100.844 26.3237L102.718 27.0224ZM120.078 25.6624L118.664 27.0766L118.718 27.1309L118.777 27.1809L120.078 25.6624ZM120.558 27.5824L122.395 28.3733L122.459 28.2245L122.498 28.0675L120.558 27.5824ZM97.9981 79.9824L96.1611 79.1915L96.1565 79.2023L96.152 79.2132L97.9981 79.9824ZM80.7981 81.4224L79.3839 82.8366L79.4382 82.8909L79.4965 82.9409L80.7981 81.4224ZM80.3981 79.4224L82.187 80.3168L82.2178 80.2552L82.2443 80.1916L80.3981 79.4224ZM86.7981 64.0624L88.6443 64.8316L88.9673 64.0563L88.6399 63.2828L86.7981 64.0624ZM71.3581 27.5824L69.4608 28.2148L69.4856 28.2895L69.5163 28.3619L71.3581 27.5824ZM71.2781 27.0224L69.3053 26.6936L69.2781 26.8569V27.0224H71.2781ZM73.2781 27.1024H86.7981V23.1024H73.2781V27.1024ZM86.7981 27.1024C87.0463 27.1024 87.1281 27.1599 87.1581 27.1824C87.2044 27.2171 87.3421 27.3424 87.4855 27.7246L91.2308 26.3201C90.8941 25.4224 90.3652 24.5877 89.5581 23.9824C88.7348 23.3649 87.7766 23.1024 86.7981 23.1024V27.1024ZM87.4761 27.6992L94.0361 45.9392L97.8001 44.5855L91.2401 26.3455L87.4761 27.6992ZM97.7921 45.961L104.592 27.721L100.844 26.3237L94.0441 44.5638L97.7921 45.961ZM104.564 27.7916C104.722 27.4129 104.874 27.2708 104.951 27.2163C105.018 27.1697 105.146 27.1024 105.438 27.1024V23.1024C104.451 23.1024 103.485 23.3551 102.645 23.9485C101.815 24.534 101.248 25.3518 100.872 26.2532L104.564 27.7916ZM105.438 27.1024H118.798V23.1024H105.438V27.1024ZM118.798 27.1024C118.788 27.1024 118.769 27.1013 118.745 27.0963C118.72 27.0913 118.697 27.0837 118.676 27.0747C118.633 27.0556 118.63 27.0429 118.664 27.0766L121.492 24.2482C120.785 23.541 119.864 23.1024 118.798 23.1024V27.1024ZM118.777 27.1809C118.821 27.2191 118.786 27.2005 118.737 27.1106C118.682 27.009 118.638 26.8649 118.638 26.7024H122.638C122.638 25.5734 122.047 24.7156 121.38 24.1439L118.777 27.1809ZM118.638 26.7024C118.638 26.8437 118.633 26.9482 118.626 27.0213C118.619 27.0975 118.613 27.1175 118.618 27.0973L122.498 28.0675C122.609 27.6233 122.638 27.1427 122.638 26.7024H118.638ZM118.721 26.7915L96.1611 79.1915L99.8351 80.7733L122.395 28.3733L118.721 26.7915ZM96.152 79.2132C96.0001 79.5776 95.8503 79.7159 95.7671 79.7729C95.6894 79.8262 95.5347 79.9024 95.1981 79.9024V83.9024C96.1949 83.9024 97.1736 83.6586 98.0292 83.0719C98.8793 82.4889 99.4628 81.6672 99.8443 80.7516L96.152 79.2132ZM95.1981 79.9024H82.0781V83.9024H95.1981V79.9024ZM82.0781 79.9024C82.0697 79.9024 82.0695 79.9017 82.0757 79.9028C82.0821 79.904 82.0909 79.9062 82.1004 79.9097C82.1098 79.9133 82.1157 79.9165 82.1171 79.9174C82.1184 79.9182 82.1124 79.9148 82.0997 79.9039L79.4965 82.9409C80.2227 83.5633 81.1081 83.9024 82.0781 83.9024V79.9024ZM82.2123 80.0082C82.234 80.0299 82.2694 80.0755 82.2951 80.1396C82.3198 80.2014 82.3181 80.237 82.3181 80.2224H78.3181C78.3181 81.1971 78.6643 82.117 79.3839 82.8366L82.2123 80.0082ZM82.3181 80.2224C82.3181 80.1358 82.3195 80.0653 82.3216 80.0093C82.3238 79.9522 82.3266 79.9177 82.3282 79.9014C82.3302 79.8817 82.3291 79.9031 82.3187 79.9515C82.3133 79.977 82.303 80.0205 82.2852 80.0763C82.2681 80.1301 82.2378 80.2152 82.187 80.3168L78.6093 78.528C78.4047 78.9371 78.3629 79.3546 78.3481 79.5034C78.3254 79.7297 78.3181 79.9765 78.3181 80.2224H82.3181ZM82.2443 80.1916L88.6443 64.8316L84.952 63.2932L78.552 78.6532L82.2443 80.1916ZM88.6399 63.2828L73.2 26.8028L69.5163 28.3619L84.9563 64.8419L88.6399 63.2828ZM73.2555 26.9499C73.2709 26.9962 73.2763 27.0278 73.278 27.0395C73.2797 27.0511 73.2781 27.0465 73.2781 27.0224H69.2781C69.2781 27.3964 69.3242 27.8051 69.4608 28.2148L73.2555 26.9499ZM73.2509 27.3512C73.2816 27.1673 73.3194 27.0634 73.3413 27.0157C73.3613 26.972 73.3619 26.988 73.3232 27.0252C73.2811 27.0656 73.2322 27.0928 73.1976 27.1052C73.1694 27.1153 73.1875 27.1024 73.2781 27.1024V23.1024C72.3178 23.1024 71.3349 23.3891 70.5531 24.1396C69.8056 24.8572 69.4549 25.7959 69.3053 26.6936L73.2509 27.3512ZM153.566 66.0624L152.152 67.4766L153.566 66.0624ZM126.046 66.0624L127.46 64.6482L126.046 66.0624ZM126.046 25.7424L127.46 27.1566L126.046 25.7424ZM143.086 25.7424L144.5 24.3282V24.3282L143.086 25.7424ZM143.726 29.9024H141.726V35.3993L145.259 31.1876L143.726 29.9024ZM149.326 25.9024L150.119 27.7385L150.129 27.7343L150.139 27.73L149.326 25.9024ZM168.046 28.9424L166.607 30.3316L166.613 30.3378L166.62 30.344L168.046 28.9424ZM170.526 42.4624V64.5424H174.526V42.4624H170.526ZM170.526 64.5424C170.526 64.5673 170.524 64.5804 170.523 64.5844C170.523 64.588 170.522 64.5878 170.523 64.5863C170.524 64.5848 170.523 64.5879 170.517 64.5963C170.511 64.6051 170.497 64.6228 170.472 64.6482L173.3 67.4766C174.09 66.6868 174.526 65.6762 174.526 64.5424H170.526ZM170.472 64.6482C170.447 64.6736 170.429 64.6869 170.42 64.6929C170.412 64.6987 170.409 64.6997 170.41 64.6991C170.412 64.6985 170.412 64.6987 170.408 64.6994C170.404 64.7002 170.391 64.7024 170.366 64.7024V68.7024C171.5 68.7024 172.511 68.2664 173.3 67.4766L170.472 64.6482ZM170.366 64.7024H155.086V68.7024H170.366V64.7024ZM155.086 64.7024C155.061 64.7024 155.048 64.7002 155.044 64.6994C155.041 64.6987 155.041 64.6985 155.042 64.6991C155.044 64.6997 155.041 64.6987 155.032 64.6929C155.024 64.6869 155.006 64.6736 154.98 64.6482L152.152 67.4766C152.942 68.2664 153.952 68.7024 155.086 68.7024V64.7024ZM154.98 64.6482C154.955 64.6228 154.942 64.6051 154.936 64.5963C154.93 64.5879 154.929 64.5848 154.93 64.5863C154.93 64.5878 154.93 64.588 154.929 64.5844C154.928 64.5804 154.926 64.5673 154.926 64.5424H150.926C150.926 65.6762 151.362 66.6868 152.152 67.4766L154.98 64.6482ZM154.926 64.5424V43.0224H150.926V64.5424H154.926ZM154.926 43.0224C154.926 41.2921 154.537 39.6211 153.406 38.377C152.242 37.0968 150.62 36.6224 148.926 36.6224V40.6224C149.9 40.6224 150.277 40.8813 150.446 41.0677C150.649 41.2904 150.926 41.8194 150.926 43.0224H154.926ZM148.926 36.6224C147.233 36.6224 145.61 37.0968 144.446 38.377C143.315 39.6211 142.926 41.2921 142.926 43.0224H146.926C146.926 41.8194 147.204 41.2904 147.406 41.0677C147.576 40.8813 147.953 40.6224 148.926 40.6224V36.6224ZM142.926 43.0224V64.5424H146.926V43.0224H142.926ZM142.926 64.5424C142.926 64.5673 142.924 64.5804 142.923 64.5844C142.923 64.588 142.922 64.5878 142.923 64.5863C142.924 64.5848 142.923 64.5879 142.917 64.5963C142.911 64.6051 142.897 64.6228 142.872 64.6482L145.7 67.4766C146.49 66.6868 146.926 65.6762 146.926 64.5424H142.926ZM142.872 64.6482C142.847 64.6736 142.829 64.6869 142.82 64.6929C142.812 64.6987 142.809 64.6997 142.81 64.6991C142.812 64.6985 142.812 64.6987 142.808 64.6994C142.804 64.7002 142.791 64.7024 142.766 64.7024V68.7024C143.9 68.7024 144.911 68.2664 145.7 67.4766L142.872 64.6482ZM142.766 64.7024H127.566V68.7024H142.766V64.7024ZM127.566 64.7024C127.541 64.7024 127.528 64.7002 127.524 64.6994C127.521 64.6987 127.521 64.6985 127.522 64.6991C127.524 64.6997 127.521 64.6987 127.512 64.6929C127.504 64.6869 127.486 64.6736 127.46 64.6482L124.632 67.4766C125.422 68.2664 126.432 68.7024 127.566 68.7024V64.7024ZM127.46 64.6482C127.435 64.6228 127.422 64.6051 127.416 64.5963C127.41 64.5879 127.409 64.5848 127.41 64.5863C127.41 64.5878 127.41 64.588 127.409 64.5844C127.408 64.5804 127.406 64.5673 127.406 64.5424H123.406C123.406 65.6762 123.842 66.6868 124.632 67.4766L127.46 64.6482ZM127.406 64.5424V27.2624H123.406V64.5424H127.406ZM127.406 27.2624C127.406 27.2375 127.408 27.2244 127.409 27.2204C127.41 27.2168 127.41 27.2169 127.41 27.2185C127.409 27.22 127.41 27.2169 127.416 27.2084C127.422 27.1996 127.435 27.182 127.46 27.1566L124.632 24.3282C123.842 25.1179 123.406 26.1286 123.406 27.2624H127.406ZM127.46 27.1566C127.486 27.1312 127.504 27.1179 127.512 27.1118C127.521 27.106 127.524 27.105 127.522 27.1057C127.521 27.1063 127.521 27.1061 127.524 27.1054C127.528 27.1046 127.541 27.1024 127.566 27.1024V23.1024C126.432 23.1024 125.422 23.5384 124.632 24.3282L127.46 27.1566ZM127.566 27.1024H141.566V23.1024H127.566V27.1024ZM141.566 27.1024C141.591 27.1024 141.604 27.1046 141.608 27.1054C141.612 27.1061 141.612 27.1063 141.61 27.1057C141.609 27.105 141.612 27.106 141.62 27.1118C141.629 27.1179 141.647 27.1312 141.672 27.1566L144.5 24.3282C143.711 23.5384 142.7 23.1024 141.566 23.1024V27.1024ZM141.672 27.1566C141.697 27.182 141.711 27.1996 141.717 27.2084C141.723 27.2169 141.724 27.22 141.723 27.2185C141.722 27.2169 141.723 27.2168 141.723 27.2204C141.724 27.2244 141.726 27.2375 141.726 27.2624H145.726C145.726 26.1286 145.29 25.118 144.5 24.3282L141.672 27.1566ZM141.726 27.2624V29.9024H145.726V27.2624H141.726ZM145.259 31.1876C146.411 29.8133 148.006 28.651 150.119 27.7385L148.533 24.0663C145.953 25.1805 143.815 26.6849 142.194 28.6172L145.259 31.1876ZM150.139 27.73C152.274 26.7811 154.556 26.3024 157.006 26.3024V22.3024C154.017 22.3024 151.179 22.8904 148.514 24.0748L150.139 27.73ZM157.006 26.3024C160.847 26.3024 164.005 27.6361 166.607 30.3316L169.485 27.5532C166.114 24.0621 161.912 22.3024 157.006 22.3024V26.3024ZM166.62 30.344C169.113 32.8815 170.526 36.8003 170.526 42.4624H174.526C174.526 36.1778 172.953 31.0833 169.473 27.5407L166.62 30.344Z" fill="white" mask="url(#path-1-outside-1_143_162)"/>
<circle cx="293.419" cy="11.5" r="8" fill="#328ABD" stroke="white"/>
<mask id="path-4-outside-2_143_162" maskUnits="userSpaceOnUse" x="177.919" y="9" width="109" height="61" fill="black">
<rect fill="white" x="177.919" y="9" width="109" height="61"/>
<path d="M182.279 11H205.319C213.106 11 219.506 12.9467 224.519 16.84C229.586 20.68 232.119 26.0667 232.119 33V44.92C232.119 52.1733 229.666 57.6667 224.759 61.4C219.852 65.1333 213.399 67 205.399 67H182.279C181.692 67 181.186 66.7867 180.759 66.36C180.332 65.9333 180.119 65.4267 180.119 64.84V13.16C180.119 12.5733 180.332 12.0667 180.759 11.64C181.186 11.2133 181.692 11 182.279 11ZM200.119 26.6V51.4H205.319C207.132 51.4 208.572 50.8667 209.639 49.8C210.759 48.68 211.319 47.0533 211.319 44.92V33C211.319 28.7333 209.319 26.6 205.319 26.6H200.119ZM238.5 48.92V43.48C238.5 37.4 240.66 32.7333 244.98 29.48C249.3 26.2267 254.874 24.6 261.7 24.6C268.527 24.6 274.1 26.2267 278.42 29.48C282.74 32.7333 284.9 37.4 284.9 43.48V48.92C284.9 55.0533 282.82 59.7467 278.66 63C274.5 66.2 268.847 67.8 261.7 67.8C254.554 67.8 248.9 66.2 244.74 63C240.58 59.7467 238.5 55.0533 238.5 48.92ZM265.3 49.56V42.84C265.3 40.8133 265.034 39.4 264.5 38.6C263.967 37.8 263.034 37.4 261.7 37.4C260.367 37.4 259.434 37.8 258.9 38.6C258.367 39.4 258.1 40.8133 258.1 42.84V49.56C258.1 51.6933 258.367 53.1333 258.9 53.88C259.434 54.6267 260.367 55 261.7 55C263.034 55 263.967 54.6 264.5 53.8C265.034 53 265.3 51.5867 265.3 49.56Z"/>
</mask>
<path d="M182.279 11H205.319C213.106 11 219.506 12.9467 224.519 16.84C229.586 20.68 232.119 26.0667 232.119 33V44.92C232.119 52.1733 229.666 57.6667 224.759 61.4C219.852 65.1333 213.399 67 205.399 67H182.279C181.692 67 181.186 66.7867 180.759 66.36C180.332 65.9333 180.119 65.4267 180.119 64.84V13.16C180.119 12.5733 180.332 12.0667 180.759 11.64C181.186 11.2133 181.692 11 182.279 11ZM200.119 26.6V51.4H205.319C207.132 51.4 208.572 50.8667 209.639 49.8C210.759 48.68 211.319 47.0533 211.319 44.92V33C211.319 28.7333 209.319 26.6 205.319 26.6H200.119ZM238.5 48.92V43.48C238.5 37.4 240.66 32.7333 244.98 29.48C249.3 26.2267 254.874 24.6 261.7 24.6C268.527 24.6 274.1 26.2267 278.42 29.48C282.74 32.7333 284.9 37.4 284.9 43.48V48.92C284.9 55.0533 282.82 59.7467 278.66 63C274.5 66.2 268.847 67.8 261.7 67.8C254.554 67.8 248.9 66.2 244.74 63C240.58 59.7467 238.5 55.0533 238.5 48.92ZM265.3 49.56V42.84C265.3 40.8133 265.034 39.4 264.5 38.6C263.967 37.8 263.034 37.4 261.7 37.4C260.367 37.4 259.434 37.8 258.9 38.6C258.367 39.4 258.1 40.8133 258.1 42.84V49.56C258.1 51.6933 258.367 53.1333 258.9 53.88C259.434 54.6267 260.367 55 261.7 55C263.034 55 263.967 54.6 264.5 53.8C265.034 53 265.3 51.5867 265.3 49.56Z" fill="white"/>
<path d="M224.519 16.84L223.292 18.4196L223.302 18.4268L223.311 18.4339L224.519 16.84ZM180.759 66.36L182.173 64.9458H182.173L180.759 66.36ZM180.759 11.64L182.173 13.0542L182.173 13.0542L180.759 11.64ZM200.119 26.6V24.6H198.119V26.6H200.119ZM200.119 51.4H198.119V53.4H200.119V51.4ZM209.639 49.8L208.225 48.3858L209.639 49.8ZM182.279 13H205.319V9H182.279V13ZM205.319 13C212.765 13 218.703 14.856 223.292 18.4196L225.746 15.2604C220.308 11.0373 213.447 9 205.319 9V13ZM223.311 18.4339C227.829 21.858 230.119 26.6272 230.119 33H234.119C234.119 25.5062 231.343 19.502 225.727 15.2461L223.311 18.4339ZM230.119 33V44.92H234.119V33H230.119ZM230.119 44.92C230.119 51.673 227.866 56.5227 223.548 59.8083L225.97 62.9917C231.465 58.8107 234.119 52.6736 234.119 44.92H230.119ZM223.548 59.8083C219.081 63.2072 213.092 65 205.399 65V69C213.706 69 220.624 67.0594 225.97 62.9917L223.548 59.8083ZM205.399 65H182.279V69H205.399V65ZM182.279 65C182.254 65 182.241 64.9978 182.237 64.997C182.233 64.9963 182.233 64.9961 182.235 64.9967C182.237 64.9974 182.233 64.9964 182.225 64.9905C182.216 64.9845 182.199 64.9712 182.173 64.9458L179.345 67.7742C180.135 68.564 181.145 69 182.279 69V65ZM182.173 64.9458C182.148 64.9204 182.134 64.9027 182.128 64.8939C182.123 64.8855 182.122 64.8824 182.122 64.8839C182.123 64.8855 182.123 64.8856 182.122 64.882C182.121 64.878 182.119 64.8649 182.119 64.84H178.119C178.119 65.9738 178.555 66.9844 179.345 67.7742L182.173 64.9458ZM182.119 64.84V13.16H178.119V64.84H182.119ZM182.119 13.16C182.119 13.1351 182.121 13.122 182.122 13.118C182.123 13.1144 182.123 13.1145 182.122 13.1161C182.122 13.1176 182.123 13.1145 182.128 13.1061C182.134 13.0973 182.148 13.0796 182.173 13.0542L179.345 10.2258C178.555 11.0156 178.119 12.0262 178.119 13.16H182.119ZM182.173 13.0542C182.199 13.0288 182.216 13.0155 182.225 13.0095C182.233 13.0036 182.237 13.0026 182.235 13.0033C182.233 13.0039 182.233 13.0037 182.237 13.003C182.241 13.0022 182.254 13 182.279 13V9C181.145 9 180.135 9.43601 179.345 10.2258L182.173 13.0542ZM198.119 26.6V51.4H202.119V26.6H198.119ZM200.119 53.4H205.319V49.4H200.119V53.4ZM205.319 53.4C207.548 53.4 209.537 52.7299 211.053 51.2142L208.225 48.3858C207.607 49.0034 206.717 49.4 205.319 49.4V53.4ZM211.053 51.2142C212.664 49.6036 213.319 47.3944 213.319 44.92H209.319C209.319 46.7123 208.854 47.7564 208.225 48.3858L211.053 51.2142ZM213.319 44.92V33H209.319V44.92H213.319ZM213.319 33C213.319 30.5894 212.756 28.4091 211.278 26.8321C209.777 25.2308 207.661 24.6 205.319 24.6V28.6C206.976 28.6 207.861 29.0359 208.36 29.5679C208.881 30.1242 209.319 31.144 209.319 33H213.319ZM205.319 24.6H200.119V28.6H205.319V24.6ZM244.98 29.48L246.183 31.0776L244.98 29.48ZM278.42 29.48L279.623 27.8824V27.8824L278.42 29.48ZM278.66 63L279.88 64.5853L279.886 64.5804L279.892 64.5754L278.66 63ZM244.74 63L243.508 64.5754L243.514 64.5804L243.521 64.5853L244.74 63ZM264.5 38.6L266.164 37.4906V37.4906L264.5 38.6ZM258.9 38.6L260.564 39.7094L258.9 38.6ZM258.9 53.88L260.528 52.7175V52.7175L258.9 53.88ZM240.5 48.92V43.48H236.5V48.92H240.5ZM240.5 43.48C240.5 37.9387 242.432 33.9023 246.183 31.0776L243.777 27.8824C238.888 31.5643 236.5 36.8613 236.5 43.48H240.5ZM246.183 31.0776C250.075 28.1472 255.192 26.6 261.7 26.6V22.6C254.555 22.6 248.526 24.3061 243.777 27.8824L246.183 31.0776ZM261.7 26.6C268.208 26.6 273.326 28.1472 277.217 31.0776L279.623 27.8824C274.875 24.3061 268.846 22.6 261.7 22.6V26.6ZM277.217 31.0776C280.968 33.9023 282.9 37.9387 282.9 43.48H286.9C286.9 36.8613 284.512 31.5643 279.623 27.8824L277.217 31.0776ZM282.9 43.48V48.92H286.9V43.48H282.9ZM282.9 48.92C282.9 54.5499 281.022 58.6143 277.428 61.4246L279.892 64.5754C284.619 60.8791 286.9 55.5567 286.9 48.92H282.9ZM277.441 61.4148C273.738 64.2633 268.564 65.8 261.7 65.8V69.8C269.13 69.8 275.263 68.1367 279.88 64.5853L277.441 61.4148ZM261.7 65.8C254.837 65.8 249.663 64.2633 245.96 61.4148L243.521 64.5853C248.138 68.1367 254.27 69.8 261.7 69.8V65.8ZM245.972 61.4246C242.379 58.6143 240.5 54.5499 240.5 48.92H236.5C236.5 55.5567 238.782 60.8791 243.508 64.5754L245.972 61.4246ZM267.3 49.56V42.84H263.3V49.56H267.3ZM267.3 42.84C267.3 40.7706 267.053 38.8237 266.164 37.4906L262.836 39.7094C263.014 39.9763 263.3 40.8561 263.3 42.84H267.3ZM266.164 37.4906C265.127 35.9344 263.42 35.4 261.7 35.4V39.4C262.647 39.4 262.807 39.6656 262.836 39.7094L266.164 37.4906ZM261.7 35.4C259.981 35.4 258.274 35.9344 257.236 37.4906L260.564 39.7094C260.593 39.6656 260.753 39.4 261.7 39.4V35.4ZM257.236 37.4906C256.347 38.8237 256.1 40.7706 256.1 42.84H260.1C260.1 40.8561 260.386 39.9763 260.564 39.7094L257.236 37.4906ZM256.1 42.84V49.56H260.1V42.84H256.1ZM256.1 49.56C256.1 50.6989 256.171 51.7233 256.334 52.6042C256.492 53.4594 256.764 54.3308 257.273 55.0425L260.528 52.7175C260.503 52.6825 260.375 52.4606 260.267 51.8758C260.163 51.3167 260.1 50.5545 260.1 49.56H256.1ZM257.273 55.0425C258.331 56.5244 260.031 57 261.7 57V53C260.703 53 260.536 52.729 260.528 52.7175L257.273 55.0425ZM261.7 57C263.42 57 265.127 56.4656 266.164 54.9094L262.836 52.6906C262.807 52.7344 262.647 53 261.7 53V57ZM266.164 54.9094C267.053 53.5763 267.3 51.6294 267.3 49.56H263.3C263.3 51.5439 263.014 52.4237 262.836 52.6906L266.164 54.9094Z" fill="#328ABD" mask="url(#path-4-outside-2_143_162)"/>
</svg>

